<svg width="134" height="50" viewBox="0 0 134 50" fill="none" xmlns="http://www.w3.org/2000/svg">
    <path d="M13 26.6667L19.25 32.9167L42.1667 10" stroke="#013C00" stroke-width="8" stroke-linecap="square" stroke-linejoin="round"/>
    <path d="M41.6667 25V39.5833C41.6667 41.8845 39.8012 43.75 37.5 43.75H8.33335C6.03217 43.75 4.16669 41.8845 4.16669 39.5833V10.4167C4.16669 8.11548 6.03217 6.25 8.33335 6.25H31.25" stroke="#013C00" stroke-width="5" stroke-linecap="square" stroke-linejoin="round"/>
    <path d="M64.7969 38L61.4746 7.0625H67.5215L69.2266 26.5918L70.9668 7.0625H76.7324L78.3848 26.5918L80.0371 7.0625H86.1543L82.7793 38H75.3613L73.8145 23.1113L72.3379 38H64.7969ZM86.6641 38L89.6523 7.0625H100.146L103.082 38H97.2285L96.7891 33.0078H93.0625L92.6758 38H86.6641ZM93.502 28.0684H96.3145L94.9609 12.3359H94.6797L93.502 28.0684ZM107.178 38V13.0039H103.504V7.0625H117.039V13.0039H113.365V38H107.178ZM126.109 38.2812C123.285 38.2812 121.246 37.5781 119.992 36.1719C118.75 34.7656 118.129 32.5273 118.129 29.457V26.4336H124.246V30.3008C124.246 31.0156 124.352 31.5781 124.562 31.9883C124.785 32.3867 125.166 32.5859 125.705 32.5859C126.268 32.5859 126.654 32.4219 126.865 32.0938C127.088 31.7656 127.199 31.2266 127.199 30.4766C127.199 29.5273 127.105 28.7363 126.918 28.1035C126.73 27.459 126.402 26.8496 125.934 26.2754C125.477 25.6895 124.838 25.0098 124.018 24.2363L121.24 21.5996C119.166 19.6426 118.129 17.4043 118.129 14.8848C118.129 12.248 118.738 10.2383 119.957 8.85547C121.188 7.47266 122.963 6.78125 125.283 6.78125C128.119 6.78125 130.129 7.53711 131.312 9.04883C132.508 10.5605 133.105 12.8574 133.105 15.9395H126.812V13.8125C126.812 13.3906 126.689 13.0625 126.443 12.8281C126.209 12.5938 125.887 12.4766 125.477 12.4766C124.984 12.4766 124.621 12.6172 124.387 12.8984C124.164 13.168 124.053 13.5195 124.053 13.9531C124.053 14.3867 124.17 14.8555 124.404 15.3594C124.639 15.8633 125.102 16.4434 125.793 17.0996L129.361 20.5273C130.076 21.207 130.732 21.9277 131.33 22.6895C131.928 23.4395 132.408 24.3184 132.771 25.3262C133.135 26.3223 133.316 27.541 133.316 28.9824C133.316 31.8887 132.777 34.168 131.699 35.8203C130.633 37.4609 128.77 38.2812 126.109 38.2812Z" fill="#013C00"/>
</svg>
